<svg width="15" height="8" viewBox="0 0 15 8" fill="none" xmlns="http://www.w3.org/2000/svg">
<path fill-rule="evenodd" clip-rule="evenodd" d="M8.207 7.7071C8.01947 7.89457 7.76516 7.99989 7.5 7.99989C7.23484 7.99989 6.98053 7.89457 6.793 7.7071L1.136 2.0501C1.04049 1.95785 0.964307 1.84751 0.911898 1.7255C0.859489 1.6035 0.831903 1.47228 0.830749 1.3395C0.829595 1.20672 0.854897 1.07504 0.905178 0.952145C0.955459 0.829249 1.02971 0.717596 1.1236 0.623704C1.2175 0.529811 1.32915 0.455558 1.45205 0.405277C1.57494 0.354996 1.70662 0.329694 1.8394 0.330848C1.97218 0.332002 2.1034 0.359588 2.2254 0.411997C2.34741 0.464406 2.45775 0.540588 2.55 0.636098L7.5 5.5861L12.45 0.636098C12.6386 0.45394 12.8912 0.353146 13.1534 0.355424C13.4156 0.357703 13.6664 0.462872 13.8518 0.64828C14.0372 0.833688 14.1424 1.0845 14.1447 1.3467C14.147 1.60889 14.0462 1.8615 13.864 2.0501L8.207 7.7071Z" fill="black"/>
</svg>
