<svg width="32" height="32" viewBox="0 0 32 32" fill="none" xmlns="http://www.w3.org/2000/svg">
<g id="formkit:linkedin">
<path id="Vector" d="M6.88 9.78002C8.48 9.78002 9.76 8.48002 9.76 6.90002C9.76 5.32002 8.46 4.02002 6.88 4.02002C5.3 4.02002 4 5.32002 4 6.90002C4 8.48002 5.3 9.78002 6.88 9.78002ZM12.5 11.96V28H17.46V20.08C17.46 17.98 17.86 15.96 20.44 15.96C23.02 15.96 23.02 18.36 23.02 20.2V28H28V19.2C28 14.88 27.08 11.56 22.04 11.56C19.62 11.56 18 12.88 17.34 14.14H17.28V11.94H12.52L12.5 11.96ZM4.4 11.96H9.38V28H4.4V11.96Z" fill="black"/>
</g>
</svg>
