<svg width="40" height="40" viewBox="0 0 40 40" fill="none" xmlns="http://www.w3.org/2000/svg">
<path d="M20 3.33325C29.205 3.33325 36.6666 10.7949 36.6666 19.9999C36.6666 29.2049 29.205 36.6666 20 36.6666C10.795 36.6666 3.33331 29.2049 3.33331 19.9999C3.33331 10.7949 10.795 3.33325 20 3.33325ZM20.2666 26.6666C18.6543 26.6647 17.0592 26.998 15.5824 27.6453C14.1057 28.2925 12.7796 29.2397 11.6883 30.4266C14.0476 32.3127 16.9794 33.3381 20 33.3333C23.1539 33.3378 26.2065 32.22 28.6116 30.1799C27.5262 29.0662 26.2284 28.1814 24.795 27.5779C23.3617 26.9745 21.8219 26.6646 20.2666 26.6666ZM20 6.66659C17.5201 6.66665 15.0894 7.35829 12.981 8.6638C10.8726 9.9693 9.17011 11.8369 8.06476 14.0568C6.95941 16.2767 6.49504 18.7608 6.72385 21.2301C6.95265 23.6994 7.86556 26.0559 9.35998 28.0349C10.7606 26.5481 12.4509 25.3638 14.3267 24.5552C16.2025 23.7466 18.224 23.3307 20.2666 23.3333C22.2361 23.3307 24.1866 23.7172 26.0062 24.4706C27.8259 25.2239 29.4787 26.3293 30.87 27.7233C32.2875 25.7284 33.1287 23.382 33.3014 20.9409C33.4741 18.4998 32.9717 16.0583 31.8491 13.8838C30.7266 11.7092 29.0272 9.8856 26.9372 8.6126C24.8472 7.33959 22.4472 6.66634 20 6.66659ZM20 8.33325C21.7681 8.33325 23.4638 9.03563 24.714 10.2859C25.9643 11.5361 26.6666 13.2318 26.6666 14.9999C26.6666 16.768 25.9643 18.4637 24.714 19.714C23.4638 20.9642 21.7681 21.6666 20 21.6666C18.2319 21.6666 16.5362 20.9642 15.2859 19.714C14.0357 18.4637 13.3333 16.768 13.3333 14.9999C13.3333 13.2318 14.0357 11.5361 15.2859 10.2859C16.5362 9.03563 18.2319 8.33325 20 8.33325ZM20 11.6666C19.1159 11.6666 18.2681 12.0178 17.643 12.6429C17.0178 13.268 16.6666 14.1159 16.6666 14.9999C16.6666 15.884 17.0178 16.7318 17.643 17.3569C18.2681 17.9821 19.1159 18.3333 20 18.3333C20.884 18.3333 21.7319 17.9821 22.357 17.3569C22.9821 16.7318 23.3333 15.884 23.3333 14.9999C23.3333 14.1159 22.9821 13.268 22.357 12.6429C21.7319 12.0178 20.884 11.6666 20 11.6666Z" fill="#666666"/>
</svg>
